<?xml version="1.0" encoding="UTF-8"?>
<svg id="_图层_1" data-name="图层 1" xmlns="http://www.w3.org/2000/svg" viewBox="0 0 482 482">
  <defs>
    <style>
      .cls-1 {
        fill: #141414;
      }

      .cls-2 {
        fill: #fff;
      }
    </style>
  </defs>
  <rect class="cls-1" width="482" height="482"/>
  <g>
    <path class="cls-2" d="M350.85,399.33c.03,5.01-4.6,9.13-7.85,9.97-4.65,1.19-9.35-.6-11.95-5.47.32,5.2,6.17,8.73,11.22,8.34s10.2-4.95,10.3-10.76l.67-40.7c.14-8.53.94-16.5.88-25.03l-.18-25,.22-37.03.2-11.68c.03-1.81-1.12-7.24,1.7-7.39,2.39-.12,41.87-1.57,37.99,1.78-.42.37-1.24.85-1.92.82-4.65-.19-10-.11-14.7.04l-21.48.7.22,94.64c.04,16.45.82,32,.24,48.12-.3,8.29-5.35,14.97-13.5,15.26-7.62.27-13.85-2.93-15.96-10.89-1.16-4.38-1.69-11.68-.07-15.88,6.78-3.36.16-19.45,3.13-27.62l.04-110.79-46.05.55-3.26,54.41-5.74,97.24c-.26,4.45-6.66,6.69-9.67,6.83-3.2.15-9.57-3.18-9.82-7.73-.55-10,.5-20.37,1.06-30.68l1.05-19.36,6.68-106.73c.4-6.35,4.54-13.14,11.8-13.18l52.94-.32c2.03-5.17,2.28-10.99,1.12-16.65l-54.17.33c-7.17.04-10.92-5.42-11.44-11.74l-2.1-25.89-7.8-100.97c-.46-5.91,3.83-10.75,8.63-11.15,5.14-.44,10.51,2.63,10.99,8.65l9.66,121.45,46.74-.09.03-31.97c-.85-5.43-.43-10.67-.22-16.17.97-25.97-1.17-45.53-.2-72.19.23-6.35,4.51-10.17,10.6-9.92,4.61.19,8.84,3.05,8.86,8.59l.25,121.61,45.94.13c2-5.2,2.13-10.51,2.21-16.15l2.27-24.81,7.13-81.29c.5-5.68,7.09-8.42,10.74-8.12,5.45.44,9.07,5.29,8.57,11.42l-10.58,128.04c-.52,6.27-5.85,9.52-11.42,9.6l-54.46.81c-.6,5.77-.44,10.71.24,16.55l34.94-.47c8.51-.12,17.28-1.37,25.55,1.32,4.57,1.49,5.98,7.51,6.35,11.97l6.68,81.52,3.38,32.72c.37,3.6.78,7.08,1,10.76l1.67,28.39c.38,6.51-5.29,11.08-11.08,11-6-.08-9.4-5.51-10.07-11.63l-2.49-22.64-.87-10.23-.94-14.87-.68-11.14-6.28-81.84c.87-2.48-.55-5.99-3.25-5.98l-44.29.28.38,103.59.23,44.73Z"/>
    <path class="cls-2" d="M51.49,409.68c-4.22,0-7.28-1.45-9.09-3.27-6.54-6.54.55-17.78,4.5-24.81l11.91-21.19,12.69-23.23,23.94-43.06,31.45-56.62-21.66-39.19-62.61-114.38c-1.9-3.47-2.15-7.32-1.06-10.89.81-2.65,4.49-6.17,8.23-6.23l35.61-.62,140.36-.63c4.44-.02,8,1.95,9.77,5.04,1.98,3.46,1.23,7.36-.49,11.33l-48.71,88.32-37.07,66.87,42.98,77.92,28.68,50.35c4.45,9.65,21.1,31.76,13.61,40.23-2.06,2.33-4.88,4.01-8.82,4.01l-174.21.05ZM154.32,188.37l54.32-98.95c.46-.84.77-2.25.74-2.91s-2.02-1.71-2.76-1.71l-136.55.1c-1.04,0-2.73.74-3.02,1.42-.21.51.03,2.23.37,2.85l42.09,76.59,28.46,50.68c6.97-10.07,10.88-18.14,16.33-28.08ZM209.5,388.64l-20.05-37.57c-5-9.36-49.21-90.46-51.29-91.41-.51-.24-1.34.75-2.27,1.55l-70.72,129.54,125.52-.1,10.12-.81,8.69-1.2Z"/>
    <path class="cls-2" d="M35.87,402.52c2.88,6.21,7.72,10.27,15.09,10.27l174.72-.06c5.08,0,10.54-2.46,11.71-7.48.98-4.21.67-8.89.75-13.67,2.97,4.3,4.85,9.21,2.8,14.64-1.46,3.87-5.56,9.31-11.1,9.4l-37.56.58-142.19.41c-8.12.02-14.65-6.42-14.22-14.07Z"/>
    <path class="cls-2" d="M401.64,359.15c-.49-7.98-2.98-14.93-1.23-22.61,1.06,6.23,1.72,12.46,2.44,19.17l3.22,29.99c.68,6.33,1.79,13.14,3.68,18.91s9.49,7.84,13.79,6.59c6.88-2,8.67-7.86,8.19-14.51l-2.45-33.95-3.7-52.15-2.31-34.55-2.1-25.61-1.67-15.33c4.24,9.96,3.61,20.71,4.66,31.5l.98,10.07,2.29,27.66,2.89,32.48,5.26,59.22c.8,8.98-2.49,17.29-11.69,19.29-8.26,1.79-17.84-3.64-18.77-12.89l-1.87-18.66-.91-12.99-.71-11.61Z"/>
    <path class="cls-2" d="M280.04,405.91c-1.77,8.61-11.05,12.38-18.69,9.86s-12.65-11.52-9.05-19.18c1.02,4.44,1.77,8.56,4.05,11.38,3.38,4.18,8.59,5.57,13.29,4.04s7.7-6.36,8.11-11.8l3.06-40.51,4.46-61.57.46-13.46,2.51-29.93,35.06-.23c.85,0,2.26.59,2.64.78.6.3-.81,2.35-1.86,2.36l-33.96.26c-2.01,5.45-.78,10.32-1.12,15.8l-1.93,31.05-4.76,75.98c-.54,8.59-.57,16.87-2.27,25.18Z"/>
    <path class="cls-2" d="M361.32,220.74c-1.76.01-4.13.58-4.39,1.5l-1.49,5.29c-1.39-2.02-1.44-6.64.46-8.94l47.78-.19c5.19-.02,10.45-2.22,13.02-5.28,3.68-4.39,3.52-9.25,3.96-14.5l2.63-31.3c.65-7.68,1.05-14.97,2.15-22.81.47-3.38.95-7.4,1.05-10.79.53-17.5,1.86-19.08,3.08-35.02l.99-13.04c.27-3.59.17-6.54,1.9-10.12.33,3.3.01,6.54-.32,10.22l-1.07,11.92-.81,12.09c-.58,8.76-1.1,17.06-2.19,25.92-.3,2.41-2.76,32.05-2.92,35.04l-.75,13.86c-.4,7.41-1.14,14.02-2.05,21.47-.85,6.97-5.61,14.32-13.89,14.37l-47.16.28Z"/>
    <path class="cls-2" d="M159.42,232.36c-1.74,3.15-2.38,5.32-3.16,8.24l-2.2-3.84,67.75-121.82,15.54-27.94c.67,7.45-5.02,11.7-7.84,17.28l-7.1,14.05-62.99,114.03Z"/>
    <path class="cls-2" d="M324.61,220.13l-21.82.68c-9.11,1.9-24.71.43-33.11-1.66,6.12-1.06,11.39.15,17.12.26l37.81.71Z"/>
    <path class="cls-2" d="M355.33,191.71c-.81-23.41-.8-46.89-.01-71.06.81,23.41.8,46.89.01,71.06Z"/>
    <path class="cls-2" d="M123.46,91.1c-6.53.1-11.71.27-17.61-.07-10.07-.58-19.52-.35-29.58-.34-.94,2.9-1.22,1.96-1.59-1l127.15.26-78.36,1.14Z"/>
    <path class="cls-2" d="M94.44,350.35l-18.2,32.63c-1.29,2.32-2.59,5.22-5.66,4.01l25.46-46.13,41.62-73.85c3.62,3.95,5.58,7.3,7.24,12.38l-6.7-8.63-43.76,79.59Z"/>
    <path class="cls-2" d="M205.23,385.55c-.22.64-2.83.23-3.2-.44l-25.9-46.77-16.39-29.77c-2.48-4.51-4.84-9.02-6.94-14.62,7.34,9.1,12.1,20.05,18.13,30.66l13.78,24.25,14.76,26.38,5.77,10.32Z"/>
  </g>
</svg>